<?xml version="1.0" encoding="utf-8"?>
<!-- Generator: Adobe Illustrator 28.1.0, SVG Export Plug-In . SVG Version: 6.00 Build 0)  -->
<svg version="1.1" id="Layer_1" xmlns="http://www.w3.org/2000/svg" xmlns:xlink="http://www.w3.org/1999/xlink" x="0px" y="0px"
	 viewBox="0 0 512 512" style="enable-background:new 0 0 512 512;" xml:space="preserve">
<style type="text/css">
	.st0{fill:#10437C;}
</style>
<g>
	<g>
		<path class="st0" d="M137.52,108.14c0,0.1-0.69,0.23-2.01,0.39c-0.33,0.04-0.7,0.08-1.12,0.12c-0.41,0.03-0.85,0.16-1.34,0.25
			c-0.96,0.21-2.1,0.35-3.33,0.78c-0.62,0.18-1.28,0.38-1.98,0.58c-0.67,0.27-1.37,0.56-2.11,0.85c-0.75,0.27-1.49,0.67-2.26,1.07
			c-0.38,0.2-0.78,0.4-1.18,0.61c-0.41,0.21-0.78,0.49-1.18,0.73c-3.2,1.98-6.57,4.83-9.43,8.8c-1.89,2.63-3.62,5.71-4.69,9.27
			c-0.17,0.43-0.27,0.89-0.37,1.35c-0.11,0.46-0.21,0.92-0.32,1.38c-0.26,0.92-0.32,1.9-0.47,2.86c-0.06,0.48-0.16,0.97-0.18,1.47
			c-0.03,0.5-0.04,1-0.07,1.5c-0.03,0.51-0.05,1.01-0.07,1.52c-0.01,0.53-0.01,1.07-0.01,1.61c-0.51,4.33,0.94,8.89,0.16,13.69
			c-0.23,4.8-0.02,9.81,0.15,15.05c0.18,5.24-0.32,10.69,0.15,16.36c0.99,5.67-1.09,11.54,0.14,17.62
			c0.27,6.08,0.2,12.36,0.13,18.83c-0.75,6.47-0.01,13.14,0.13,19.99c-0.91,6.85-0.51,13.88,0.12,21.09
			c-1.24,7.21-1.05,14.59,0.11,22.14c0.01,1.89-0.01,3.79-0.05,5.69c-0.01,0.95-0.02,1.9-0.04,2.86c0.03,0.89,0.06,1.79,0.09,2.68
			c0.3,3.57,1.28,7.16,3.09,10.33c3.18,6.55,8.81,11.95,15.63,15.13c3.62,1.13,7.31,1.77,11.06,1.92c0.47,0.02,0.92,0.06,1.42,0.07
			l1.57,0.02c1.05,0.02,2.09,0.06,3.14,0.1c2.1,0.09,4.21,0.23,6.32,0.4c8.47-0.89,17.09-0.53,25.83-0.07
			c8.74,0.5,17.62-0.78,26.62-0.07c9,0.05,18.12-0.21,27.36-0.06c9.24,0.37,18.59,0.78,28.05-0.04c9.46-0.22,19.02-0.52,28.68-0.04
			c9.66-0.95,19.42-0.53,29.27-0.02c9.85-0.16,19.78,0.51,29.79-0.02c10.02,0.15,20.11-0.42,30.28-0.01
			c4.62,0.13,9.27-0.83,13.45-2.84c4.16-2,7.86-5.04,10.42-8.83c2.56-3.76,4.56-7.83,5.67-12.19c0.18-0.53,0.24-1.1,0.35-1.65
			l0.3-1.66c0.12-1.12,0.18-2.23,0.26-3.38c0.04-2.47,0.05-4.94-0.01-7.4c0.89-9.84-0.29-19.61,0.03-29.27
			c-0.09-9.66,0.51-19.23,0.04-28.68c-0.17-9.46-0.34-18.81,0.05-28.04c-1.37-9.24,0.36-18.36,0.06-27.36
			c0.57-9-0.09-17.87,0.07-26.62c-0.06-2.19-0.06-4.37-0.02-6.53l0.02-0.81l-0.03-0.75l-0.03-1.49c0.03-1-0.17-1.97-0.27-2.96
			c-0.54-3.91-1.93-7.73-4.22-10.9c-2-3.35-4.75-6.17-7.84-8.4c-3.09-2.25-6.49-3.91-10.03-5.19c-1.85-0.37-3.69-0.61-5.54-0.82
			c-0.93-0.05-1.84-0.12-2.78-0.2c-1.01-0.04-2.01-0.09-3.02-0.12c-4.02-0.17-7.99-0.37-11.93-0.12c-7.87-0.01-15.59,0.04-23.14-0.1
			c-7.55-1.07-14.93-0.18-22.14-0.11c-7.21-0.12-14.24,0.61-21.09-0.12c-6.85-0.08-13.51-0.55-19.99-0.12
			c-6.47,0.15-12.75-1.56-18.83-0.14c-6.07,0.26-11.95-1.09-17.62-0.14c-5.67,0.88-11.13-0.11-16.36-0.14
			c-5.24-0.06-10.26-0.11-15.05-0.15c-21.57-0.23-38.53-0.48-50.1-0.75c-5.78-0.13-10.22-0.26-13.22-0.4
			C139.07,108.42,137.52,108.28,137.52,108.14c0-0.16,1.91-0.32,5.59-0.47c3.68-0.15,9.13-0.3,16.22-0.45
			c14.18-0.29,34.91-0.56,61.1-0.81c5.23-0.04,10.7-0.8,16.36-0.15c5.67,0.01,11.54-0.57,17.62-0.14
			c6.08-0.99,12.36-0.18,18.83-0.12c6.47-0.05,13.14,0.26,19.99-0.13c6.85-0.57,13.88,0.29,21.09-0.12
			c7.21,0.62,14.59,0.45,22.14-0.11c7.55,0.59,15.27-0.12,23.14-0.1c3.94,0.46,7.92,0.52,11.93,0.43c1.01-0.03,2.01-0.07,3.02-0.1
			c1.08,0.01,2.16,0.01,3.24,0.03c2.17,0.13,4.36,0.37,6.52,0.9c4.31,1.03,8.41,3.09,11.98,5.84c3.58,2.75,6.65,6.17,9.16,10.01
			c2.34,3.94,4.08,8.3,4.93,12.9c0.17,1.16,0.44,2.31,0.47,3.48l0.11,1.76l0.05,0.89l0,0.81c0.02,2.17,0.01,4.34-0.03,6.53
			c0.43,8.74,0.59,17.61,0.07,26.62c0.29,9,0.06,18.13,0.06,27.36c0.36,9.24-0.05,18.58,0.05,28.04c0.19,9.46-0.97,19.02,0.04,28.68
			c0.13,9.66-0.16,19.42,0.03,29.27c-0.03,2.46-0.06,4.93-0.09,7.4c-0.07,1.33-0.13,2.7-0.26,4.04l-0.32,2.01
			c-0.12,0.66-0.18,1.34-0.38,1.99c-1.21,5.28-3.57,10.29-6.83,14.69c-3.74,4.01-8.08,7.34-12.93,9.81
			c-4.84,2.48-10.25,4.04-15.83,4.25c-10.16,0.29-20.26,0.14-30.28-0.01c-10.01,0.1-19.95,0.04-29.79-0.02
			c-9.85,0.3-19.61-0.42-29.27-0.02c-9.66,0.42-19.22-0.46-28.68-0.04c-9.46,0.29-18.81,0.45-28.05-0.04
			c-9.23,0-18.36-0.91-27.36-0.06c-9,0.2-17.87,1.32-26.62-0.07c-8.75,0.35-17.36-0.67-25.83-0.07c-2.11-0.26-4.22-0.38-6.32-0.43
			c-1.05-0.03-2.1-0.04-3.14-0.03l-1.57,0.01c-0.53,0-1.11-0.02-1.66-0.04c-4.46-0.07-8.94-0.86-13-2.67
			c-4.02-1.87-7.6-4.48-10.62-7.54c-3.03-3.07-5.53-6.56-7.53-10.3c-2.04-3.74-3.1-7.95-3.39-12.1c-0.03-1.04-0.05-2.08-0.07-3.11
			c0.02-0.97,0.04-1.93,0.07-2.89c0.04-1.9,0.06-3.8,0.02-5.69c-0.58-7.55,0.76-14.93,0.11-22.14c0.14-7.21-0.09-14.24,0.12-21.09
			c-1.37-6.85,0.01-13.51,0.12-19.99c0.2-6.47-0.91-12.75,0.13-18.83c-1.04-6.08-0.14-11.95,0.14-17.62
			c0.3-5.67-0.44-11.13,0.14-16.36c-0.73-5.24,0.4-10.25,0.16-15.05c0.48-4.8,0.02-9.36,0.16-13.69c-0.02-0.54-0.03-1.08-0.05-1.61
			c0.02-0.56,0.03-1.11,0.05-1.66c0.02-0.55,0.05-1.1,0.08-1.64c0.03-0.54,0.15-1.07,0.22-1.6c0.19-1.05,0.32-2.11,0.66-3.08
			c0.15-0.5,0.3-0.99,0.46-1.48c0.15-0.48,0.3-0.97,0.52-1.42c1.27-3.8,3.22-7.06,5.33-9.79c3.19-4.11,6.88-6.99,10.32-8.91
			c0.44-0.23,0.84-0.51,1.27-0.7c0.43-0.2,0.86-0.39,1.27-0.58c0.83-0.38,1.61-0.76,2.42-0.99c0.78-0.27,1.53-0.52,2.25-0.75
			c0.74-0.17,1.43-0.32,2.08-0.48c1.3-0.34,2.48-0.4,3.49-0.52c0.51-0.04,0.96-0.13,1.39-0.12c0.42,0,0.81,0.01,1.15,0.01
			C136.84,107.98,137.52,108.04,137.52,108.14z"/>
	</g>
	<g>
		<path class="st0" d="M308.35,357.73c-1.12-0.27-2.29-0.2-3.39-0.03c-2.87,0.29-5.72,0.14-8.55-0.01c-2.83,0.1-5.63,0.05-8.41-0.01
			c-2.78,0.29-5.54-0.42-8.27-0.03c-2.73,0.42-5.43-0.45-8.1-0.04c-2.67,0.29-5.31,0.45-7.92-0.04c-2.6,0-5.18-0.92-7.72-0.06
			c-2.54,0.19-5.05,1.32-7.52-0.07c-2.47,0.35-4.9-0.67-7.29-0.07c-2.39-1.02-4.74-0.06-7.05-0.09c-2.31-0.2-4.58-0.54-6.8-0.1
			c-2.22,0.49-4.4-0.26-6.54-0.1c-2.13,0.58-4.22-0.76-6.25-0.11c-2.03-0.13-4.02,0.09-5.95-0.12c-0.48,0.34-0.96,0.51-1.44,0.57
			c-0.38,0.09-0.74,0.06-1.13-0.01c-0.38-0.04-0.77-0.12-1.17-0.18c-0.39-0.01-0.79-0.04-1.17,0.04c-0.37,0.1-0.73,0.24-1.05,0.45
			c-0.31,0.23-0.61,0.44-0.9,0.68c-0.27,0.25-0.57,0.44-0.88,0.62c-0.31,0.18-0.68,0.27-1.12,0.31"/>
		<path class="st0" d="M194.16,359.39c0.3-0.37,0.69-0.67,1.07-0.96c0.39-0.29,0.8-0.55,1.12-0.89c0.33-0.33,0.62-0.71,0.78-1.27
			c1.33-1.48,3.21-2.49,5.24-3.08c0.56,0.02,1.09,0,1.61-0.1c0.52-0.07,1.04-0.16,1.56-0.29c0.53-0.1,1.07-0.2,1.61-0.3
			c0.48-0.07,0.96-0.15,1.44-0.18c1.94,0.91,3.92,0.52,5.95-0.12c2.04,1.24,4.12,1.05,6.25-0.11c2.13-0.04,4.31,0.45,6.54-0.1
			c2.22-0.08,4.49-0.32,6.8-0.1c2.31-0.83,4.67-0.79,7.05-0.08c2.39-0.89,4.83-0.54,7.29-0.08c2.46,0.5,4.97-0.78,7.52-0.07
			c2.54,0.05,5.12-0.21,7.72-0.06c2.61,0.37,5.25,0.78,7.92-0.05c2.67-0.22,5.37-0.52,8.1-0.04c2.73-0.95,5.49-0.53,8.27-0.03
			c2.78-0.15,5.58,0.51,8.41-0.01c2.83,0.15,5.68-0.42,8.55-0.01c1.76,0.17,3.46,0.59,5.08,1.14c1.63,0.56,3.15,1.31,4.72,2.09
			c0.8,0.38,1.49,0.93,2.13,1.52c0.3,0.32,0.59,0.64,0.87,0.98c0.28,0.33,0.5,0.71,0.74,1.07"/>
	</g>
	<path class="st0" d="M380.13,293.42c4.63,0.07,9.27-0.03,13.92-0.1c2.33-0.04,4.66-0.07,7-0.06l1.75,0.01l1.69,0.03
		c0.14,0.02,0.29,0.06,0.51,0.11l0,0c0.04-0.13,0.07-0.3,0.11-0.51c0.03-1.15,0.06-2.3,0.09-3.45c0.06-2.34,0.1-4.67,0.12-7
		c0.03-4.66-0.04-9.3-0.32-13.92c-0.61-9.25,0.25-18.42,0.02-27.51c0.89-9.09-0.29-18.1,0.03-27.02
		c-0.09-8.91,0.51-17.75,0.04-26.48c-0.17-8.73-0.34-17.37,0.05-25.89c-0.54-3.36-0.6-6.7-0.49-10.03c0.05-1.66,0.15-3.32,0.25-4.98
		l0.07-1.24c0-0.04,0-0.13,0.01-0.12l0.01-0.02l0.02-0.04l0.03-0.1c0.05-0.14,0.09-0.32,0.12-0.5c-0.13-0.04-0.3-0.07-0.49-0.07
		h-0.13h-0.45l-1.32,0.03c-8.31-0.58-16.5,0.09-24.57-0.07c-8.07,0.26-16.02-0.63-23.84-0.07c-7.82-0.12-15.51,0.44-23.07-0.09
		c-7.55,0.68-14.97-0.57-22.24-0.1c-7.27,0-14.39,0.04-21.36-0.1c-6.97-1.07-13.79-0.18-20.44-0.11
		c-6.65-0.12-13.15,0.61-19.47-0.12c-6.32-0.09-12.48-0.56-18.45-0.13c-5.98,0.16-11.77-1.55-17.38-0.13
		c-5.61,0.26-11.04-1.09-16.27-0.14c-5.23,0.89-10.27-0.1-15.1-0.15c-4.84-0.04-9.47-0.1-13.9-0.15
		c-19.91-0.23-35.57-0.48-46.26-0.75c-5.34-0.13-9.44-0.26-12.2-0.4c-2.76-0.14-4.19-0.28-4.19-0.42c0-0.16,1.76-0.32,5.16-0.47
		c3.4-0.15,8.43-0.31,14.98-0.45c13.09-0.29,32.22-0.56,56.41-0.81c4.83-0.04,9.87-0.8,15.1-0.14c5.23,0,10.66-0.57,16.27-0.15
		c5.61-0.99,11.41-0.18,17.38-0.13c5.98-0.04,12.13,0.27,18.45-0.12c6.32-0.57,12.81,0.29,19.47-0.12
		c6.65,0.61,13.47,0.45,20.44-0.11c6.97,0.59,14.09-0.12,21.36-0.1c7.27,0.92,14.69,0.28,22.24-0.1c7.56-0.33,15.25,0.14,23.07-0.09
		c7.82,0.18,15.77-0.23,23.84-0.07c8.07-0.43,16.27-0.59,24.57-0.07l1.32-0.05l2.11-0.03c1.65-0.01,3.31-0.03,4.96-0.04
		c0.01,2.67,0.02,5.35,0.03,8.04c-0.01,1.66-0.02,3.32-0.03,4.98c-0.02,3.33-0.04,6.67-0.06,10.03c0.36,8.53-0.05,17.16,0.05,25.89
		c0.19,8.73-0.97,17.56,0.04,26.48c0.13,8.92-0.16,17.93,0.03,27.02c-0.13,9.09-0.26,18.26,0.02,27.51
		c-0.5,4.62-0.59,9.27-0.51,13.92c0.04,2.33,0.12,4.67,0.22,7c0.05,1.19,0.1,2.38,0.15,3.57c0.05,2.2,0.1,4.41,0.16,6.62l0,0
		c-3.41,0.05-6.81,0.1-10.2,0.15c-2.34,0.02-4.67,0.02-7,0.01c-4.66-0.01-9.3-0.09-13.92-0.16c-9.25,0.1-18.42,0.04-27.51-0.02
		c-9.09,0.29-18.1-0.42-27.02-0.03c-8.92,0.42-17.75-0.45-26.48-0.04c-8.73,0.29-17.37,0.45-25.89-0.04
		c-8.53,0-16.95-0.92-25.26-0.06c-8.31,0.19-16.51,1.32-24.57-0.07c-8.07,0.35-16.02-0.67-23.84-0.07
		c-7.82-1.02-15.51-0.05-23.06-0.09c-7.56-0.2-14.97-0.53-22.24-0.09c-7.27,0.49-14.39-0.26-21.36-0.1
		c-6.97,0.59-13.79-0.76-20.44-0.11c-1.42-0.03-2.83-0.04-4.23-0.04c-2.2,0-4.4,0.01-6.58,0.01c0-2.67-0.01-5.33-0.01-7.97
		c0.01-1.85,0.03-3.67,0.09-5.49c-1.37-6.31,0.01-12.47,0.12-18.44c0.2-5.98-0.91-11.78,0.13-17.39
		c-1.04-5.61-0.14-11.04,0.14-16.27c0.3-5.22-0.44-10.26,0.14-15.1c-0.73-4.83,0.4-9.47,0.16-13.89c0.48-4.42,0.02-8.64,0.16-12.64
		c-0.17-3.99-0.11-7.77,0.16-11.32c0.06-3.55,0.11-6.88,0.16-9.98c0.17-9.28,0.35-16.46,0.53-21.31c0.18-4.86,0.37-7.39,0.56-7.39
		c0.19,0,0.38,2.53,0.56,7.39c0.18,4.86,0.36,12.03,0.53,21.31c0.05,3.1,0.11,6.42,0.17,9.98c0.1,3.55,0.21,7.33,0.16,11.32
		c-0.51,4.01,0.94,8.22,0.16,12.64c-0.23,4.42-0.02,9.06,0.15,13.89c0.18,4.84-0.32,9.87,0.15,15.1c0.99,5.24-1.09,10.66,0.14,16.27
		c0.27,5.61,0.2,11.41,0.13,17.39c-0.75,5.97-0.01,12.13,0.13,18.44c-0.26,1.82-0.41,3.65-0.49,5.49l-0.04,1.38l-0.01,1.02
		c0,0.49,0.02,0.98,0.06,1.43c0.38-0.03,0.76-0.06,1.12-0.1l0.51-0.06c0.1-0.01,0.13-0.02,0.29-0.04l0.52-0.04
		c1.4-0.1,2.82-0.23,4.23-0.37c6.65,1.24,13.47,1.05,20.44-0.11c6.97-0.04,14.1,0.45,21.36-0.1c7.27-0.08,14.68-0.31,22.24-0.1
		c7.55-0.83,15.24-0.79,23.06-0.08c7.82-0.89,15.77-0.54,23.84-0.08c8.07,0.5,16.27-0.78,24.57-0.07
		c8.31,0.05,16.73-0.21,25.26-0.06c8.53,0.37,17.16,0.78,25.89-0.05c8.73-0.21,17.56-0.52,26.48-0.04
		c8.92-0.95,17.92-0.53,27.02-0.03"/>
	<g>
		<path class="st0" d="M277.41,308.96c0,0.19-0.12,0.4-0.31,0.59c-0.1,0.1-0.2,0.2-0.32,0.3c-0.12,0.1-0.24,0.26-0.37,0.38
			c-0.08,0.1-0.18,0.15-0.26,0.28c-0.06,0.15-0.11,0.3-0.25,0.32c-0.2-0.2-0.13,0.05-0.05,0.26c0.06,0.21,0.13,0.36-0.17,0.1
			c-0.13-0.04-0.19,0.01-0.22,0.08c-0.02,0.09,0.01,0.21,0.03,0.31c0.07,0.22-0.47,0.03-0.13,0.42c0.39,0.31,0.13,0.22-0.13,0.18
			c-0.25-0.05-0.5-0.04,0.06,0.26c0.23,0.23,0.08,0.31,0.02,0.45c-0.38,0.01-0.38,0.11-0.29,0.2c0.09,0.1,0.29,0.17,0.38,0.23
			c-0.44,0.09-0.56,0.21-0.49,0.29c0.04,0.04,0.12,0.07,0.23,0.1c0.13,0.01,0.28,0.02,0.45,0.01c-0.58,0.23-0.79,0.42-0.73,0.51
			c0.05,0.09,0.45,0.04,0.99-0.17c0.05,0.04-0.02,0.18-0.02,0.26c0.02,0.08,0.09,0.14,0.33,0.02c0.07,0.04,0.17,0.02,0.26,0.02
			c0.08,0.01,0.12,0.04,0.11,0.19c0.3-0.32,0.43-0.49,0.47-0.47c0.01,0.01,0.01,0.07-0.01,0.16c-0.02,0.1-0.04,0.23-0.06,0.39
			c0.21-0.4,0.26-0.52,0.29-0.46c0.03,0.02,0.05,0.22,0.09,0.46c0.02,0.13,0.05,0.16,0.1,0.12c0.1-0.04,0.19-0.13,0.29-0.21
			c0.2-0.17,0.39-0.32,0.59,0.04c0.39,0.05,0.79-0.21,1.2-0.06c0.4,0.37,0.82,0.78,1.23-0.04c0.41-0.22,0.83-0.52,1.26-0.04
			c0.42-0.94,0.85-0.53,1.28-0.02c0.43-0.16,0.87,0.51,1.31-0.02c0.44,0.15,0.88-0.42,1.32-0.01c0.1,0.25,0.4,0.53,0.35-0.07
			c-0.02-0.15-0.02-0.21,0.01-0.22c0.02-0.01,0.05,0,0.1,0.04c0.09,0.06,0.26,0.2,0.23,0.04c0.31,0.31,0.35,0.19,0.31,0.05
			c-0.05-0.17-0.2-0.35-0.02-0.29c0.02-0.06,0.13-0.06,0.24-0.07c0.1-0.02,0.2-0.07-0.03-0.23c-0.07-0.09-0.13-0.15-0.11-0.21
			c-0.03-0.06,0.02-0.09,0.23-0.13c-0.65-0.1-0.59-0.09-0.38-0.15c0.21-0.06,0.59-0.2,0.42-0.23c0.25-0.12,0.2-0.2,0.12-0.24
			c-0.07-0.05-0.25-0.03-0.21-0.12c-0.15,0.01-0.01-0.14,0.02-0.26c0.05-0.12,0.05-0.25-0.18-0.12c0-0.1-0.15-0.04-0.23-0.04
			c-0.08,0.01-0.11-0.03-0.04-0.27c-0.24,0.26-0.2,0.12-0.18-0.07c0.02-0.19-0.01-0.37-0.15-0.17c-0.12-0.07-0.25-0.01-0.38-0.18
			c-0.02-0.27-0.05-0.42-0.11-0.5c-0.08-0.07-0.16-0.06-0.25-0.01c-0.16,0.1-0.32,0.34-0.48,0.37c-0.32-0.12-0.63,0.61-0.92-0.12
			c-0.3-0.09-0.59-0.56-0.88-0.13c-0.28,0.16-0.55-1.55-0.82-0.12c-0.27,0.26-0.52-1.1-0.77-0.14c-0.25,0.87-0.49-0.11-0.71-0.15
			c-0.23-0.05-0.45-0.1-0.66-0.15C278.5,310.07,277.41,309.53,277.41,308.96c0-0.64,1.33-1.23,3.63-1.72
			c0.23-0.05,0.47-0.81,0.71-0.15c0.25,0,0.51-0.57,0.77-0.14c0.27-1,0.54-0.18,0.82-0.13c0.29-0.05,0.58,0.27,0.88-0.12
			c0.3-0.58,0.6,0.29,0.92-0.12c0.15,0.31,0.31,0.42,0.48,0.39c0.08-0.01,0.16-0.07,0.25-0.15c0.11-0.08,0.25-0.19,0.38-0.32
			c0.25,0.32,0.49,0.32,0.77,0.25c0.28-0.09,0.58-0.15,0.85-0.06c0.13,0.53,0.34,0.64,0.62,0.68c0.27,0.04,0.63-0.06,0.99-0.07
			c0.35-0.01,0.57,0.22,0.78,0.45c0.2,0.23,0.4,0.46,0.69,0.6c0.26,0.57,1,0.8,1.17,1.48c0.71,0.34,1.11,1.03,0.77,1.81
			c0.24,0.29,0.27,0.65,0.29,1c0.01,0.34-0.02,0.7-0.06,1.04c0.15,0.36,0.1,0.73,0,1.07c-0.14,0.34-0.32,0.66-0.38,1.01
			c-0.01,0.39-0.42,0.61-0.7,0.84c-0.29,0.23-0.46,0.5-0.3,1.08c-0.18,0.32-0.44,0.59-0.73,0.82c-0.3,0.23-0.59,0.44-0.83,0.74
			c-0.33,0.18-0.7,0.29-1.03,0.45c-0.17,0.08-0.33,0.18-0.49,0.27c-0.17,0.08-0.33,0.18-0.49,0.32c-0.52-0.37-0.85-0.34-1.2-0.23
			c-0.34,0.12-0.69,0.4-1.08,0.62c-0.45,0.29-0.89,0.14-1.33-0.01c-0.44,0.1-0.87,0.04-1.31-0.02c-0.43,0.3-0.86-0.42-1.28-0.02
			c-0.42,0.42-0.84-0.45-1.26-0.04c-0.41,0.29-0.83,0.45-1.23-0.04c-0.4,0-0.81-0.91-1.2-0.06c-0.2,0.09-0.39,0.42-0.59,0.56
			c-0.1,0.07-0.19,0.09-0.29,0c-0.16-0.1-0.34-0.3-0.48-0.66c-0.34,0.15-0.66-0.06-0.93-0.23c-0.28-0.22-0.52-0.4-0.91-0.22
			c-0.07-0.29-0.15-0.45-0.27-0.56c-0.11-0.11-0.25-0.15-0.4-0.17c-0.3-0.04-0.68,0.02-0.92-0.15c-0.18-0.26-0.32-0.54-0.49-0.76
			c-0.18-0.21-0.39-0.37-0.73-0.45c-0.36-0.05-0.5-0.33-0.58-0.6c-0.08-0.29-0.07-0.6-0.27-0.79c-0.38-0.1-0.36-0.42-0.27-0.74
			c0.09-0.31,0.18-0.58-0.21-0.73c0-0.13-0.02-0.25-0.06-0.37l-0.06-0.37c-0.04-0.23-0.07-0.48,0.02-0.72
			c-0.72-0.21-0.69-0.48-0.48-0.71c0.21-0.23,0.6-0.42,0.68-0.62c0.12-0.2-0.04-0.45-0.1-0.68c-0.06-0.24,0-0.48,0.55-0.48
			c-0.43-0.37-0.36-0.6-0.14-0.72c0.21-0.12,0.56-0.15,0.77-0.23c0.21-0.08,0.21-0.28,0.26-0.45c0.05-0.18,0.14-0.35,0.46-0.29
			c-0.17-0.36,0.02-0.43,0.24-0.42c0.23,0.01,0.49,0.07,0.52-0.11c0.53,0.2,0.43-0.35,0.74-0.37c0.14-0.26,0.4-0.34,0.7-0.2
			c0.21-0.07,0.44-0.06,0.63-0.07c0.3,0,0.55,0,0.76,0.06c0.22,0.06,0.4,0.13,0.53,0.21C277.29,308.59,277.41,308.77,277.41,308.96z
			"/>
	</g>
	<g>
		<path class="st0" d="M226.22,308.96c0,0.19-0.12,0.4-0.3,0.59c-0.1,0.1-0.21,0.2-0.33,0.3c-0.12,0.1-0.24,0.26-0.37,0.38
			c-0.09,0.1-0.18,0.15-0.26,0.28c-0.06,0.15-0.11,0.3-0.25,0.32c-0.2-0.19-0.13,0.05-0.06,0.26c0.07,0.21,0.14,0.36-0.17,0.1
			c-0.13-0.04-0.19,0.01-0.22,0.08c-0.02,0.08,0.01,0.21,0.03,0.31c0.07,0.22-0.47,0.03-0.13,0.42c0.39,0.31,0.13,0.22-0.13,0.18
			c-0.25-0.05-0.51-0.04,0.06,0.26c0.23,0.23,0.08,0.31,0.01,0.45c-0.37,0.01-0.38,0.11-0.29,0.2c0.1,0.09,0.3,0.17,0.39,0.23
			c-0.44,0.09-0.56,0.21-0.49,0.29c0.03,0.04,0.11,0.07,0.23,0.1c0.12,0.01,0.28,0.02,0.44,0.01c-0.57,0.22-0.79,0.42-0.73,0.51
			c0.05,0.1,0.45,0.04,0.98-0.16c0.05,0.04-0.03,0.18-0.01,0.26c0.02,0.08,0.09,0.14,0.34,0.01c0.03,0.02,0.07,0.03,0.11,0.03
			c0.05,0,0.1-0.01,0.14,0c0.08,0.01,0.12,0.04,0.11,0.19c0.3-0.32,0.43-0.49,0.46-0.47c0.02,0.01,0.02,0.06,0,0.16
			c-0.02,0.1-0.04,0.23-0.06,0.39c0.21-0.4,0.27-0.53,0.29-0.46c0.04,0.02,0.05,0.22,0.1,0.46c0.02,0.13,0.06,0.15,0.1,0.12
			c0.09-0.04,0.19-0.13,0.29-0.21c0.2-0.17,0.39-0.32,0.59,0.04c0.39,0.05,0.79-0.21,1.2-0.06c0.4,0.37,0.81,0.78,1.23-0.04
			c0.42-0.22,0.83-0.52,1.26-0.04c0.42-0.94,0.85-0.53,1.28-0.02c0.43-0.16,0.87,0.51,1.3-0.02c0.44,0.15,0.88-0.42,1.33-0.01
			c0.1,0.25,0.4,0.53,0.35-0.07c-0.02-0.15-0.02-0.21,0-0.22c0.02-0.01,0.06,0,0.1,0.04c0.09,0.07,0.25,0.2,0.23,0.05
			c0.31,0.31,0.34,0.18,0.3,0.04c-0.05-0.16-0.2-0.35-0.02-0.29c0.02-0.07,0.13-0.06,0.24-0.08c0.1-0.01,0.2-0.07-0.03-0.22
			c-0.07-0.09-0.13-0.16-0.11-0.21c-0.02-0.06,0.03-0.1,0.23-0.14c-0.66-0.1-0.59-0.09-0.38-0.15c0.21-0.06,0.58-0.2,0.41-0.23
			c0.25-0.12,0.21-0.21,0.12-0.25c-0.07-0.05-0.25-0.03-0.21-0.12c-0.14,0.01-0.01-0.14,0.03-0.26c0.05-0.12,0.05-0.24-0.19-0.12
			c0-0.09-0.15-0.04-0.22-0.04c-0.08,0.01-0.12-0.03-0.04-0.27c-0.24,0.26-0.2,0.12-0.18-0.07c0.02-0.19-0.01-0.37-0.14-0.17
			c-0.13-0.07-0.26-0.01-0.38-0.18c-0.02-0.27-0.06-0.42-0.11-0.5c-0.08-0.07-0.16-0.06-0.24-0.01c-0.16,0.1-0.32,0.34-0.48,0.37
			c-0.32-0.12-0.62,0.61-0.92-0.12c-0.3-0.09-0.59-0.56-0.87-0.13c-0.29,0.16-0.56-1.55-0.83-0.12c-0.27,0.26-0.52-1.1-0.77-0.14
			c-0.25,0.87-0.49-0.11-0.71-0.15c-0.23-0.05-0.45-0.1-0.66-0.15C227.3,310.07,226.22,309.53,226.22,308.96
			c0-0.64,1.34-1.23,3.63-1.72c0.23-0.05,0.47-0.81,0.71-0.15c0.25,0,0.51-0.57,0.77-0.14c0.27-1,0.54-0.18,0.83-0.13
			c0.28-0.05,0.57,0.27,0.87-0.12c0.3-0.58,0.61,0.29,0.92-0.12c0.16,0.31,0.32,0.42,0.48,0.39c0.08-0.01,0.16-0.07,0.24-0.15
			c0.11-0.08,0.25-0.19,0.38-0.32c0.25,0.32,0.49,0.32,0.77,0.25c0.28-0.09,0.58-0.15,0.85-0.06c0.13,0.53,0.34,0.64,0.62,0.68
			c0.27,0.04,0.63-0.06,0.99-0.07c0.35-0.01,0.57,0.22,0.78,0.45c0.2,0.23,0.4,0.46,0.68,0.61c0.26,0.57,1.01,0.8,1.17,1.48
			c0.71,0.34,1.1,1.04,0.77,1.82c0.23,0.29,0.26,0.64,0.28,0.98c0.02,0.35-0.02,0.7-0.06,1.04c0.15,0.36,0.1,0.73,0,1.07
			c-0.14,0.34-0.32,0.66-0.38,1.01c-0.01,0.39-0.42,0.61-0.7,0.84c-0.29,0.24-0.46,0.5-0.3,1.08c-0.18,0.32-0.44,0.59-0.72,0.83
			c-0.3,0.22-0.59,0.43-0.84,0.74c-0.33,0.18-0.7,0.29-1.03,0.45c-0.17,0.08-0.33,0.18-0.49,0.26c-0.17,0.09-0.33,0.19-0.49,0.32
			c-0.52-0.37-0.85-0.34-1.2-0.23c-0.34,0.12-0.68,0.4-1.08,0.62c-0.44,0.29-0.89,0.14-1.33-0.01c-0.44,0.1-0.87,0.04-1.3-0.02
			c-0.43,0.3-0.86-0.42-1.28-0.02c-0.42,0.42-0.84-0.45-1.26-0.04c-0.41,0.29-0.83,0.45-1.23-0.04c-0.41,0-0.81-0.91-1.2-0.06
			c-0.2,0.09-0.39,0.42-0.59,0.56c-0.1,0.07-0.19,0.09-0.29,0c-0.17-0.1-0.35-0.3-0.49-0.66c-0.34,0.14-0.65-0.06-0.93-0.24
			c-0.28-0.21-0.52-0.4-0.91-0.21c-0.06-0.29-0.15-0.45-0.27-0.56c-0.11-0.11-0.24-0.15-0.39-0.17c-0.3-0.04-0.68,0.02-0.92-0.15
			c-0.18-0.26-0.32-0.55-0.49-0.76c-0.09-0.11-0.19-0.21-0.31-0.28c-0.11-0.07-0.24-0.14-0.42-0.18c-0.36-0.04-0.5-0.32-0.58-0.6
			c-0.07-0.29-0.07-0.6-0.27-0.78c-0.38-0.11-0.36-0.42-0.27-0.74c0.08-0.31,0.18-0.58-0.21-0.73c0-0.13-0.02-0.25-0.06-0.37
			l-0.06-0.36c-0.05-0.23-0.07-0.48,0.01-0.72c-0.71-0.21-0.69-0.49-0.48-0.72c0.21-0.23,0.61-0.42,0.69-0.62
			c0.12-0.2-0.04-0.44-0.1-0.68c-0.06-0.24,0-0.48,0.55-0.48c-0.43-0.38-0.36-0.6-0.14-0.72c0.21-0.13,0.56-0.15,0.77-0.24
			c0.21-0.07,0.21-0.28,0.26-0.45c0.05-0.18,0.14-0.34,0.46-0.28c-0.17-0.36,0.02-0.44,0.24-0.43c0.23,0.01,0.49,0.08,0.51-0.1
			c0.53,0.2,0.43-0.35,0.74-0.37c0.13-0.26,0.4-0.34,0.7-0.2c0.21-0.07,0.44-0.06,0.63-0.07c0.29,0,0.54,0,0.76,0.06
			c0.22,0.06,0.39,0.13,0.53,0.21C226.09,308.59,226.22,308.77,226.22,308.96z"/>
	</g>
	<g>
		<path class="st0" d="M141.45,226.22v-14.66l84.57-35.71v15.59l-67.07,27.54l67.07,27.8v15.6L141.45,226.22z"/>
		<g>
			<g>
				<path class="st0" d="M197.95,206.35c-3.32,1.5-6.83,2.64-10.2,4.22c-3.48,1.3-7,2.59-10.38,4.28c-1.94,0.26-3.72,0.89-5.45,1.68
					c-0.86,0.4-1.71,0.83-2.56,1.29l-0.63,0.34l-0.32,0.18l-0.16,0.09l-0.08,0.04c-0.03,0.01-0.01,0.01-0.02,0.02
					c-0.05,0.08-0.08,0.15-0.1,0.21c-0.11,0.23-0.09,0.24-0.42,0.32c0.02,0.04,0.02,0.1,0.09,0.19c0.14,0.04,0.25,0.07,0.35,0.09
					l0.14,0.05l1.09,0.45c1.72,0.74,3.44,1.48,5.14,2.21c3.54,1.15,6.66,3.22,10.18,4.25c3.53,1,6.52,3.19,9.97,4.17
					c3.4,1.1,6.72,2.31,9.75,4.09c3.21,1.33,6.04,3.49,9.5,4.01c3.21,1.11,6.73,1.35,9.24,3.9c0.36,0.1,0.7,0.23,1.05,0.35
					l0.51,0.21l0.67,0.29c1.22,0.53,2.4,1.09,3.54,1.63c-0.04,0.81-0.07,1.63-0.12,2.44c-0.02,0.71-0.04,1.42-0.06,2.13
					c-0.02,0.9,0.02,1.79,0.19,2.67c-0.51,1.6-0.52,3.18-0.41,4.75c0.11,2.53,0.34,5.48,0.32,8.2c-0.02,0.46-0.03,0.92-0.05,1.36
					c-2.35-1.11-4.57-2.18-6.68-3.12c-0.53-0.23-1.06-0.46-1.59-0.69l-0.62-0.26l-0.48-0.18c-0.64-0.24-1.29-0.45-1.95-0.62
					c-2.92-0.73-5.3-2.56-7.98-3.52c-2.85-0.59-4.88-2.91-7.63-3.38c-2.44-1.19-4.97-2.03-7.26-3.24c-2.91,0.25-4.68-2.01-6.88-3.08
					c-2.16-1.14-4.78-1.05-6.47-2.91c-2.51,0.05-4.2-1.64-6.06-2.74c-1.85-1.11-4.03-1.24-5.61-2.56c-2.1-0.1-3.4-1.89-5.16-2.37
					c-1.47-1.16-3.23-1.41-4.69-2.18c-1.56-0.49-2.96-1.15-4.19-1.97c-1.31-0.62-2.54-1.21-3.68-1.75
					c-6.83-3.29-10.5-5.26-10.35-5.61c0.15-0.35,4.1,0.94,11.21,3.6c1.18,0.45,2.46,0.94,3.81,1.45c1.37,0.48,2.83,0.98,4.32,1.67
					c1.3,1.11,3.45,0.45,4.8,1.88c1.57,0.92,3.39,1.47,5.28,2.09c1.89,0.62,3.58,1.88,5.73,2.29c2.35-0.07,3.57,2.72,6.17,2.49
					c2.21,0.65,4.36,1.66,6.58,2.67c1.95,1.66,4.56,1.96,6.98,2.85c2.02,1.85,4.61,2.53,7.36,3.02c2.01,2.2,4.65,3.13,7.72,3.18
					c2.63,1.08,5.11,2.67,8.06,3.33c0.63,0.24,1.27,0.49,1.9,0.74l0.48,0.18l0.24,0.1c0.04,0.01,0.05,0.01,0.07,0.02l0.25,0.07
					c0.33,0.09,0.57,0.18,0.96,0.41c0.01-0.04,0.03-0.09,0.05-0.14c-0.2-0.47-0.36-0.74-0.46-0.91l-0.11-0.19
					c-0.01-0.02-0.02-0.04-0.03-0.07l-0.01-0.03l-0.01-0.01v-0.07c0-1.57,0.18-3.15,0.54-4.75c-0.25-0.89-0.4-1.77-0.48-2.67
					c-0.01-0.09-0.02-0.26-0.03-0.29l-0.02-0.04c-0.01-0.01-0.02-0.04-0.02-0.05c-0.01-0.04,0-0.07,0.02-0.13
					c-0.03-0.04-0.05-0.12-0.11-0.23l-0.01-0.02c0-0.01,0-0.01-0.06-0.04l-0.24-0.14l-0.48-0.27l-0.96-0.56
					c-2.85-1.73-6.43-1.82-9.29-3.79c-3.11-1.35-6.39-2.42-9.55-3.89c-3.08-1.68-6.18-3.41-9.79-4.01c-3.37-1.16-6.82-2.26-10-4.11
					c-3.73-0.51-6.96-2.31-10.2-4.2c-1.74-0.64-3.42-1.46-5.12-2.26l-0.64-0.29l-0.82-0.37c-0.78-0.33-1.55-0.65-2.34-0.97
					c-1.57-0.64-3.19-1.24-5.01-1.85c-2.31-1.02-4.76-1.98-7.35-3c1.93-0.84,3.91-1.71,6-2.58c2.08-0.87,4.27-1.74,6.44-2.48
					l2.51-0.92l1.42-0.48c0.91-0.31,1.8-0.63,2.69-0.97c1.77-0.69,3.5-1.47,5.14-2.45c3.26-2,7.05-2.62,10.4-4.26
					c3.77-0.59,6.73-3.07,10.22-4.16c3.34-1.47,6.9-2.28,10.02-4.07c3.24-1.51,6.43-3,9.8-3.97c1.34-1.29,2.96-1.87,4.63-2.31
					c0.83-0.22,1.67-0.41,2.49-0.64c0.04-0.01,0.13-0.04,0.13-0.04h0.04l0.07,0.01c0.05,0,0.1-0.01,0.14-0.02
					c0.1-0.01,0.18-0.05,0.22-0.11l-0.01-0.01c0.08-0.04,0.12-0.11,0.16-0.21c0.02-0.04,0.03-0.1,0.04-0.15
					c0.02-0.08,0.02-0.03,0.03-0.31c0.02-0.84,0-1.68-0.04-2.52c-0.07-1.68-0.2-3.33-0.13-4.98l0-0.09l0-0.02l-0.01-0.03l-0.02-0.07
					c0-0.04-0.01-0.09-0.01-0.14c0-0.1,0.02-0.2,0.04-0.31c0.05-0.24,0.14-0.56,0.2-0.89c-0.25,0-0.74,0.18-1.05,0.57
					c-0.09,0.02-0.17,0.05-0.29,0.1l-1.09,0.48c-0.71,0.34-1.43,0.68-2.14,1.02c-1.42,0.66-2.85,1.27-4.38,1.63
					c-2.58,1.82-5.85,1.85-8.4,3.45c-2.74,1.15-5.4,2.32-8.08,3.3c-3.04,0.12-5.26,2.02-7.73,3.15c-2.55,0.94-4.71,2.64-7.37,2.97
					c-2.41,0.93-4.91,1.47-6.99,2.82c-2.19,1.09-5.03,0.44-6.59,2.64c-2.01,1.12-4.58,0.75-6.18,2.45
					c-1.62,1.64-3.91,1.53-5.73,2.26c-1.85,0.72-3.61,1.41-5.29,2.07c-1.91,0.74-3.72,1.44-5.42,2.09
					c-0.85,0.33-1.68,0.64-2.47,0.94c-0.55,0.21-1.09,0.4-1.61,0.58c-0.09,1.27-0.19,3.76-0.29,5.5c-0.1,1.82-0.2,3.35-0.29,4.59
					c-0.2,2.48-0.42,3.79-0.63,3.79c-0.22,0-0.42-1.3-0.63-3.79c-0.1-1.24-0.2-2.78-0.3-4.59c-0.05-0.91-0.1-1.89-0.14-2.94
					c-0.03-0.59-0.05-1.2-0.07-1.83c-0.02-0.76-0.04-1.54-0.07-2.34c2.31-1.06,4.87-2.24,7.66-3.53c2.53-1.15,5.26-2.4,8.2-3.74
					c1.8-0.81,3.4-2.31,5.62-2.53c1.97-0.82,3.79-2.21,6.07-2.71c1.73-1.8,4.22-1.98,6.49-2.88c2.23-1,4.67-1.68,6.89-3.05
					c2.16-1.53,4.93-1.77,7.27-3.2c2.74-0.5,5.25-1.72,7.65-3.35c2.85-0.56,5.25-2.36,7.99-3.49c3.09-0.32,5.63-2.09,8.33-3.63
					c1.35-0.75,2.8-1.33,4.27-1.9c0.73-0.28,1.47-0.56,2.2-0.86c0.37-0.15,0.73-0.3,1.09-0.46c0.61-0.27,1.28-0.58,1.93-0.88
					c2.31-0.89,4.59-1.89,7-2.96c0.03,1.6,0.06,3.21,0.09,4.82c0,0.84,0.01,1.67,0.01,2.5l-0.01,1.27l-0.03,1.19
					c0.22,1.65,0.36,3.3,0.39,4.98c0.02,0.84,0,1.68-0.05,2.52c-0.04,0.73-0.07,1.46-0.1,2.2c-0.05,0.78-0.1,1.55-0.17,2.28l0,0.12
					l-2.09,0.94l-2.06,0.89c-0.78,0.34-1.57,0.67-2.36,0.97c-1.58,0.63-3.2,1.23-4.8,1.88"/>
				<path class="st0" d="M207.93,202.21"/>
			</g>
		</g>
	</g>
	<path class="st0" d="M235.86,284.26l37.02-132.1h12.53l-36.92,132.1H235.86z"/>
	<path class="st0" d="M264.94,191.15c-1.29,2.45-1.37,5.21-2.23,7.7"/>
</g>
<g>
	<path class="st0" d="M382.21,214.23l-0.4,14.65l-85.51,33.4l0.42-15.59l67.79-25.71l-66.29-29.61l0.42-15.59L382.21,214.23z"/>
	<g>
		<g>
			<path class="st0" d="M325.19,232.57c3.36-1.41,6.9-2.45,10.31-3.94c3.51-1.2,7.06-2.39,10.5-3.99c1.94-0.21,3.75-0.78,5.5-1.54
				c0.87-0.37,1.74-0.79,2.6-1.22l0.64-0.32l0.32-0.17l0.16-0.08l0.08-0.03c0.03-0.01,0.01-0.01,0.02-0.02
				c0.05-0.08,0.08-0.14,0.1-0.2c0.11-0.23,0.1-0.24,0.43-0.3c-0.02-0.04-0.02-0.1-0.09-0.19c-0.14-0.04-0.25-0.07-0.35-0.1
				l-0.14-0.06l-1.08-0.48c-1.7-0.79-3.4-1.57-5.08-2.35c-3.51-1.25-6.57-3.4-10.06-4.52c-3.5-1.1-6.43-3.37-9.86-4.44
				c-3.37-1.19-6.66-2.49-9.64-4.36c-3.17-1.42-5.94-3.65-9.39-4.26c-3.18-1.2-6.69-1.54-9.13-4.15c-0.36-0.11-0.7-0.25-1.04-0.38
				l-0.5-0.23l-0.66-0.3c-1.21-0.57-2.37-1.16-3.49-1.72c0.06-0.81,0.12-1.62,0.18-2.43c0.04-0.71,0.08-1.42,0.12-2.13
				c0.04-0.9,0.02-1.79-0.11-2.68c0.55-1.58,0.61-3.16,0.54-4.73c-0.04-2.53-0.19-5.49-0.1-8.2c0.03-0.46,0.06-0.91,0.09-1.36
				c2.32,1.18,4.51,2.3,6.59,3.3c0.52,0.24,1.05,0.49,1.57,0.73l0.61,0.28l0.48,0.2c0.63,0.26,1.27,0.49,1.93,0.68
				c2.9,0.8,5.23,2.7,7.88,3.74c2.83,0.66,4.8,3.05,7.54,3.59c2.41,1.25,4.91,2.16,7.17,3.43c2.92-0.17,4.63,2.13,6.79,3.26
				c2.13,1.2,4.75,1.18,6.39,3.09c2.51,0.02,4.15,1.75,5.98,2.9c1.81,1.16,3.99,1.35,5.54,2.71c2.1,0.16,3.34,1.98,5.09,2.5
				c1.44,1.2,3.19,1.5,4.62,2.3c1.55,0.53,2.93,1.23,4.13,2.08c1.29,0.66,2.51,1.28,3.63,1.85c6.74,3.47,10.35,5.54,10.19,5.89
				c-0.16,0.35-4.08-1.05-11.1-3.91c-1.17-0.49-2.43-1-3.77-1.55c-1.36-0.51-2.81-1.06-4.27-1.79c-1.27-1.14-3.44-0.55-4.75-2.01
				c-1.55-0.96-3.35-1.56-5.22-2.24c-1.87-0.67-3.53-1.97-5.66-2.44c-2.35,0-3.5-2.81-6.1-2.66c-2.19-0.71-4.31-1.77-6.5-2.84
				c-1.91-1.71-4.5-2.08-6.9-3.04c-1.97-1.9-4.54-2.65-7.27-3.22c-1.95-2.26-4.56-3.25-7.63-3.39c-2.6-1.16-5.04-2.8-7.97-3.55
				c-0.62-0.26-1.25-0.53-1.88-0.79l-0.47-0.19l-0.24-0.1c-0.04-0.02-0.05-0.02-0.07-0.02l-0.24-0.07c-0.32-0.1-0.57-0.19-0.94-0.44
				c-0.02,0.04-0.03,0.09-0.05,0.14c0.19,0.47,0.34,0.75,0.44,0.92l0.11,0.19c0.01,0.02,0.02,0.04,0.03,0.07l0.01,0.03l0.01,0.01
				l0,0.07c-0.04,1.57-0.26,3.14-0.67,4.73c0.22,0.89,0.35,1.78,0.41,2.69c0.01,0.09,0.01,0.26,0.02,0.29l0.02,0.04
				c0.01,0.01,0.02,0.04,0.02,0.05c0,0.04,0,0.07-0.02,0.13c0.03,0.04,0.05,0.12,0.1,0.23l0.01,0.02c0,0.01,0,0.01,0.06,0.04
				l0.24,0.15l0.47,0.28l0.95,0.58c2.8,1.81,6.38,2,9.19,4.04c3.08,1.43,6.32,2.6,9.44,4.15c3.03,1.76,6.08,3.57,9.68,4.27
				c3.34,1.26,6.76,2.45,9.89,4.38c3.71,0.61,6.9,2.5,10.09,4.47c1.73,0.68,3.38,1.56,5.05,2.4l0.63,0.31l0.81,0.39
				c0.77,0.35,1.53,0.69,2.31,1.04c1.56,0.68,3.15,1.32,4.96,1.99c2.29,1.08,4.71,2.11,7.27,3.2c-1.95,0.78-3.96,1.61-6.07,2.41
				c-2.1,0.81-4.32,1.62-6.51,2.31l-2.53,0.85l-1.43,0.44c-0.91,0.28-1.82,0.58-2.72,0.9c-1.79,0.64-3.54,1.38-5.2,2.31
				c-3.32,1.91-7.12,2.43-10.51,3.97c-3.79,0.48-6.81,2.88-10.33,3.88c-3.37,1.37-6.96,2.09-10.12,3.8
				c-3.28,1.42-6.51,2.83-9.91,3.7c-1.37,1.25-3.01,1.79-4.69,2.19c-0.83,0.2-1.68,0.36-2.51,0.57c-0.04,0.01-0.13,0.04-0.13,0.03
				l-0.04,0l-0.07-0.02c-0.05,0-0.1,0.01-0.14,0.02c-0.1,0.01-0.18,0.05-0.23,0.1l0,0.01c-0.08,0.03-0.13,0.11-0.17,0.2
				c-0.02,0.04-0.03,0.09-0.04,0.15c-0.02,0.08-0.02,0.03-0.04,0.31c-0.04,0.84-0.04,1.68-0.03,2.52c0.03,1.68,0.11,3.34-0.01,4.98
				l0,0.09l0,0.02l0.01,0.03l0.01,0.07c0,0.04,0.01,0.09,0,0.14c-0.01,0.1-0.03,0.2-0.05,0.31c-0.06,0.24-0.15,0.55-0.22,0.89
				c0.25,0.01,0.75-0.16,1.06-0.54c0.09-0.02,0.17-0.05,0.29-0.09l1.1-0.45c0.72-0.32,1.45-0.64,2.17-0.96
				c1.44-0.62,2.89-1.2,4.42-1.51c2.62-1.75,5.9-1.69,8.49-3.22c2.77-1.08,5.46-2.17,8.16-3.08c3.04-0.04,5.31-1.88,7.82-2.94
				c2.57-0.88,4.78-2.52,7.45-2.77c2.43-0.86,4.95-1.34,7.06-2.63c2.22-1.03,5.04-0.3,6.66-2.46c2.04-1.07,4.6-0.62,6.24-2.29
				c1.67-1.6,3.95-1.42,5.79-2.11c1.86-0.67,3.65-1.31,5.34-1.93c1.93-0.69,3.76-1.33,5.48-1.95c0.86-0.31,1.69-0.6,2.5-0.88
				c0.56-0.19,1.1-0.37,1.62-0.53c0.12-1.26,0.29-3.75,0.43-5.49c0.15-1.81,0.29-3.34,0.42-4.58c0.27-2.48,0.52-3.77,0.73-3.77
				c0.22,0.01,0.39,1.31,0.53,3.8c0.06,1.24,0.12,2.78,0.17,4.6c0.02,0.91,0.04,1.89,0.06,2.94c0.01,0.59,0.02,1.2,0.03,1.83
				c0,0.76,0,1.54,0,2.34c-2.33,1-4.93,2.11-7.76,3.32c-2.56,1.08-5.33,2.25-8.3,3.51c-1.82,0.76-3.47,2.21-5.69,2.38
				c-1.99,0.77-3.85,2.11-6.14,2.54c-1.78,1.75-4.27,1.87-6.57,2.7c-2.25,0.94-4.71,1.56-6.97,2.87c-2.2,1.47-4.98,1.64-7.36,3
				c-2.76,0.42-5.29,1.58-7.74,3.14c-2.86,0.49-5.31,2.21-8.08,3.27c-3.1,0.24-5.69,1.93-8.43,3.4c-1.37,0.72-2.84,1.25-4.32,1.78
				c-0.74,0.26-1.48,0.52-2.23,0.8c-0.37,0.14-0.74,0.28-1.11,0.43c-0.62,0.25-1.3,0.54-1.95,0.83c-2.33,0.83-4.64,1.76-7.08,2.77
				c0.02-1.6,0.03-3.21,0.04-4.82c0.02-0.83,0.04-1.67,0.06-2.5l0.05-1.27l0.06-1.19c-0.17-1.65-0.27-3.31-0.26-4.99
				c0.01-0.84,0.05-1.68,0.12-2.52c0.06-0.73,0.11-1.46,0.16-2.19c0.07-0.78,0.14-1.54,0.23-2.27l0-0.12l2.11-0.89l2.08-0.84
				c0.79-0.32,1.59-0.62,2.39-0.91c1.6-0.59,3.23-1.14,4.85-1.75"/>
			<path class="st0" d="M315.09,236.43"/>
		</g>
	</g>
</g>
</svg>
